<svg width="247" height="325" viewBox="0 0 247 325" fill="none" xmlns="http://www.w3.org/2000/svg">
<path fill-rule="evenodd" clip-rule="evenodd" d="M5.50388 179.488C8.52066 179.785 11.5374 180.081 14.5542 180.377C29.0024 181.481 43.4448 183.787 57.7824 185.172C58.1394 184.59 58.8381 184.686 59.2624 185.09C60.693 184.965 62.2965 183.871 63.5924 185.009C63.6345 185.003 63.6766 184.996 63.7191 184.992C66.0266 180.561 67.6216 175.836 69.1696 171.104C70.1576 168.194 71.487 165.378 73.9436 163.425C78.136 160.514 87.7419 154.61 92.6647 154.858C92.7464 153.976 93.1573 153.067 93.8319 152.48C92.345 149.944 98.2903 148.29 98.7097 148.584C98.4409 140.111 102.425 132.753 111.209 131.066C119.079 129.425 130.273 129.15 134.505 137.377C134.97 137.325 139.726 137.3 140.186 137.352C140.902 136.445 148.759 145.035 145.539 148.025C174.329 160.766 190.699 159.246 198.667 195.063C199.745 198.428 199.823 202.11 200.961 205.399C205.008 214.853 208.29 224.92 209.107 235.207C211.08 235.713 211.307 239.193 209.022 239.697C208.149 239.889 207.419 240.152 206.782 240.651C207.28 249.081 205.242 268.338 203.958 268.278C201.339 276.614 189.66 278.967 181.392 276.038C182.817 278.72 181.392 280.407 181.392 281.84C151.639 282.966 119.109 282.318 89.3646 283.862C85.5598 283.808 81.5579 284.797 77.8052 284.228C75.5166 283.679 75.5128 280.079 77.8342 279.634L67.6907 277.43C67.9174 277.344 63.5094 274.411 60.178 268.93C57.077 262.799 59.1875 255.398 57.7824 248.729C46.8082 247.831 35.6526 247.447 24.7986 245.588C23.3186 250.017 16.9122 244.72 14.8759 242.589C14.8784 242.585 14.8809 242.582 14.8835 242.579C13.898 242.309 13.1077 241.385 13.0812 240.291C12.3901 239.303 12.245 237.911 12.9078 236.956C9.87011 219.421 5.2391 201.517 3.56523 183.817C2.97351 183.686 2.41625 183.426 1.9438 183.026L1.98209 182.988C1.18163 182.095 1.02598 180.554 2.36042 179.796C3.43686 179.183 4.33566 179.373 5.50388 179.488Z" fill="white"/>
<path fill-rule="evenodd" clip-rule="evenodd" d="M133.957 135.467C133.06 133.213 130.03 134.089 130.368 136.457C130.57 137.875 131.347 139.373 132.044 140.616C132.612 141.627 133.26 142.615 134.138 143.373C132.574 144.832 130.952 146.238 129.288 147.573C127.472 149.029 125.563 150.372 123.589 151.606C121.859 152.688 120.05 153.647 118.419 154.881C116.902 156.029 115.521 157.41 114.818 159.212C114.069 161.131 114.394 163.113 114.946 165.031L115.009 165.248C115.572 167.148 116.548 169.438 115.195 171.228C114.507 172.139 113.506 172.785 112.641 173.513C111.873 174.161 111.152 174.865 110.491 175.622C109.049 177.271 107.876 179.126 107.136 181.194L107.07 181.381C106.436 183.212 105.972 185.454 106.829 187.25C107.075 187.765 107.868 187.598 108.006 187.097C108.317 185.96 108.301 184.77 108.562 183.618C108.834 182.42 109.286 181.282 109.877 180.206C111.019 178.124 112.566 176.346 114.394 174.842L114.942 174.397C116.368 173.226 117.678 171.984 117.968 170.046C118.277 167.973 117.447 165.998 116.913 164.036C116.541 162.669 116.42 161.358 116.822 160.122C117.313 160.924 117.983 161.686 118.513 162.365C119.569 163.718 120.634 165.062 121.697 166.409C122.787 167.791 123.85 169.194 124.862 170.633C125.315 171.277 125.763 171.925 126.209 172.574C126.545 173.061 127.013 173.548 127.379 174.045C127.29 174.311 127.297 174.617 127.458 174.835C129.398 177.458 132.159 171.985 132.879 170.603C134.345 167.787 135.436 164.795 136.907 161.98C138.432 159.062 140.168 156.221 142.102 153.557C143.272 151.945 144.584 150.432 145.654 148.769C148.176 151.057 151.495 152.59 154.543 153.981C157.892 155.509 161.372 156.757 164.805 158.082L165.82 158.476C171.736 160.786 177.797 163.324 182.715 167.427C188.494 172.248 191.912 178.968 194.458 185.927C197.387 193.939 199.811 202.166 202.071 210.388C203.227 214.595 204.324 218.821 205.356 223.061C206.265 226.796 207.018 230.568 208.07 234.264C205.936 234.189 203.503 235.015 201.681 235.254C193.378 236.341 185.187 238.074 177.349 241.075C176.381 241.445 176.1 242.413 176.311 243.197C175.753 243.039 175.195 242.879 174.637 242.722C175.248 241.785 174.956 240.108 174.908 239.069L174.905 238.997C174.856 237.612 174.706 236.226 174.608 234.844C174.423 232.208 174.181 229.592 173.86 226.972L173.778 226.317C173.415 223.466 173.146 220.599 172.749 217.753L172.702 217.427C172.892 216.699 173.114 215.98 173.346 215.264C173.966 213.356 174.841 211.561 175.608 209.714C175.698 209.496 175.388 209.371 175.244 209.502C173.945 210.67 172.914 212.153 172.085 213.703C172.071 213.63 172.058 213.557 172.043 213.483L171.949 213.018C171.715 211.882 171.432 210.688 170.736 209.767C170.661 209.669 170.515 209.649 170.445 209.767C169.778 210.895 169.704 212.324 169.601 213.607C169.485 215.059 169.471 216.529 169.491 217.985C169.531 220.831 169.732 223.684 169.891 226.525C170.048 229.317 170.356 232.073 170.752 234.837L170.828 235.355C171.022 236.671 171.18 238.003 171.436 239.31L171.508 239.665C171.645 240.313 171.729 241.227 172.001 241.986C165 240.032 157.988 238.123 150.963 236.248C145.886 234.893 140.803 233.557 135.723 232.213C135.455 231.73 135.121 231.279 134.704 230.875C133.332 229.545 131.513 228.952 129.844 229.976C129.709 230.059 129.697 230.272 129.844 230.352C130.164 230.527 130.484 230.706 130.799 230.893L127.748 230.067C125.468 229.448 123.16 228.676 120.826 228.245C116.528 226.123 111.904 224.587 107.376 223.069L106.842 222.888C104.524 222.097 102.126 221.212 99.7301 220.774C97.9764 220.453 95.9178 220.84 95.2126 222.637C94.3197 223.226 93.4797 223.918 92.6691 224.598C92.083 225.089 91.5213 225.612 90.95 226.121L90.8447 226.214C90.3777 226.619 90.0077 226.89 89.893 227.536C89.8339 227.869 90.0456 228.32 90.4565 228.275C91.7138 228.141 92.7361 226.683 93.5888 225.812C94.2475 225.139 94.9115 224.444 95.5128 223.704C95.8633 223.895 96.3437 223.861 96.5668 223.438C97.7237 221.247 100.893 222.765 102.646 223.285L105.158 224.029C106.414 224.401 107.67 224.775 108.923 225.156C112.367 226.202 115.795 227.374 119.271 228.335C118.96 228.677 119.003 229.285 119.593 229.516C122.314 230.584 125.299 231.136 128.126 231.869C129.91 232.332 131.694 232.798 133.476 233.267C133.782 233.762 134.002 234.323 134.095 234.975C134.435 237.374 133.779 240.142 133.14 242.462L133.043 242.808C132.518 244.674 131.745 246.96 130.136 248.138C129.743 248.426 129.243 248.625 128.739 248.671C125.59 247.049 122.441 245.428 119.289 243.809C118.706 243.509 118.166 243.915 118.035 244.398C116.924 244.215 115.816 243.928 114.806 243.585C113.11 243.009 111.785 241.91 110.195 241.149C107.117 239.679 103.975 241.485 101.219 242.858L100.584 243.171C99.3488 243.77 96.7783 244.923 96.1854 243.282C95.6121 241.695 97.425 240 98.5958 239.285C99.9914 238.434 101.616 237.978 103.194 237.599C104.094 237.382 105.006 237.205 105.923 237.076C106.963 236.929 108.038 236.951 109.04 236.614C109.537 236.446 109.614 235.656 109.04 235.525C107.498 235.174 105.657 235.557 104.049 235.948L103.208 236.155C101.587 236.553 99.9498 237.053 98.4733 237.847C97.3996 238.424 96.2664 239.301 95.5261 240.375C94.8832 239.777 94.0831 239.798 93.2496 240.019L92.7972 240.145C92.0502 240.352 91.4447 240.495 90.7178 240.351C90.6207 239.822 90.5222 239.293 90.4168 238.764C89.3809 233.561 88.245 228.379 86.9915 223.225C84.8294 214.334 82.3276 205.54 79.5071 196.837L79.224 195.967C78.5735 193.976 78.05 191.807 77.0013 189.978C76.0094 188.249 74.4202 187.253 72.5321 186.725C70.3895 186.127 68.138 185.814 65.9522 185.409C65.4646 185.319 64.9757 185.234 64.4877 185.145C64.9001 184.4 65.208 183.555 65.4853 182.906L65.5339 182.793C66.1296 181.435 66.6647 180.051 67.1815 178.661L67.568 177.615C68.5011 175.098 69.4642 172.622 70.7761 170.268C72.1569 167.79 73.9888 165.764 76.2724 164.087C80.9283 160.668 86.5402 158.925 91.0561 155.271C91.2411 155.121 91.0039 154.865 90.8161 154.96C87.7668 156.493 84.4751 157.535 81.3035 158.783L80.6779 159.03C78.1711 160.024 75.6253 161.106 73.4556 162.716C71.0366 164.51 69.1314 166.739 67.6994 169.39C66.2881 172.003 65.3854 174.927 64.3897 177.718L64.1234 178.461C63.7217 179.576 63.3069 180.688 62.8316 181.773C62.4543 182.635 61.7501 183.618 61.43 184.602C60.5543 184.45 59.6788 184.298 58.8023 184.151C39.8163 180.98 20.6182 179.117 1.37741 178.572C0.624662 178.55 0.2353 179.269 0.346216 179.926C2.19269 190.849 3.83361 201.809 5.63403 212.74C6.41995 217.511 7.2215 222.278 8.04185 227.043C8.45742 229.457 8.93784 231.862 9.33143 234.279C9.64918 236.232 9.87988 238.199 10.4254 240.107C10.9147 241.817 11.6655 243.466 12.8987 244.77C14.228 246.177 16.0833 246.857 17.9509 247.179C22.692 247.995 27.555 248.329 32.3345 248.872L57.781 251.768C57.4092 255.15 57.3814 258.478 57.552 261.899L57.6492 263.767C57.7287 265.268 57.8237 266.773 58.0394 268.259C58.3098 270.124 59.1625 271.703 60.4185 273.096C61.5718 274.375 62.9729 275.466 64.3358 276.512C65.7504 277.598 67.2122 278.646 68.8755 279.318L69.0914 279.403C70.5506 279.973 73.2879 280.856 75.2824 280.533C75.0217 281.84 74.5172 283.245 74.9645 284.538C75.1719 285.139 75.9568 285.438 76.4376 284.927C77.3902 283.915 77.4646 282.577 77.6902 281.256C77.925 279.882 78.1273 278.502 78.3071 277.119C78.6549 274.445 78.9255 271.747 79.0081 269.051C79.093 266.282 79.0603 263.509 78.9112 260.743C78.8345 259.322 78.7394 257.902 78.5592 256.491C78.4823 255.889 78.4037 255.287 78.3139 254.686C78.2811 254.467 78.2448 254.249 78.2057 254.032L80.4897 254.29C83.9918 254.681 87.4956 255.034 91.0225 255.089C91.4402 255.095 91.7615 254.905 91.9715 254.628C92.1952 254.993 92.5848 255.253 93.1428 255.251C98.068 255.233 102.655 253.622 107.134 251.723C109.392 250.766 111.615 249.729 113.877 248.78C115.988 247.894 118.244 247.262 120.304 246.264L125.717 249.104C125.756 249.244 125.807 249.376 125.861 249.486C126.214 250.206 126.909 250.596 127.618 250.89C128.299 251.173 129.005 251.261 129.692 251.19C133.797 253.342 137.903 255.491 142.012 257.636L146.121 259.779C154.309 264.044 162.465 268.379 170.704 272.544L171.311 272.849C174.157 274.277 177.213 275.724 180.371 276.804C180.427 277.603 180.392 278.381 180.325 279.228L180.309 279.412C180.214 280.412 180.012 281.666 180.815 282.378C181.232 282.748 181.977 282.75 182.261 282.191C182.776 281.179 182.314 279.582 182.15 278.482C182.093 278.091 182.022 277.689 181.918 277.299C185.538 278.377 189.269 278.9 192.953 278.294C196.541 277.705 199.319 275.445 201.559 272.679C203.923 269.761 205.602 266.36 206.504 262.715C207.529 258.566 207.596 254.282 207.572 250.033C207.547 245.508 207.379 240.961 206.829 236.467C207.432 236.325 208.1 236.202 208.71 236.245C209.011 236.727 209.596 236.931 210.125 236.868C211.275 238.137 208.358 239.433 207.426 239.758C207.103 239.871 207.137 240.397 207.511 240.381L207.746 240.37C209.186 240.293 210.674 240.047 211.521 238.708C212.199 237.635 211.996 236.363 211.187 235.488C210.652 230.434 209.375 225.513 208.186 220.583C207.02 215.744 205.722 210.936 204.347 206.153L203.731 204.012C201.565 196.511 199.302 188.95 196.316 181.748C194.824 178.152 193.106 174.621 190.778 171.486C188.607 168.562 186.044 166.061 183.098 163.925C177.606 159.942 171.162 157.535 164.83 155.242L164.547 155.14C161.266 153.952 157.992 152.751 154.749 151.464C151.88 150.326 149.131 148.884 146.276 147.729C146.369 147.561 146.458 147.39 146.545 147.218L146.597 147.263C146.606 147.27 146.616 147.277 146.625 147.283C146.912 147.482 147.335 147.384 147.572 147.161C148.24 146.53 148.014 145.83 147.568 145.176L147.51 145.093C146.964 144.329 146.478 143.52 145.974 142.728L145.659 142.233C144.814 140.909 143.926 139.577 142.799 138.483C142.277 137.977 141.706 137.597 141.101 137.315C141.152 137.205 140.699 136.982 140.57 137.094C138.652 136.392 136.446 136.539 134.355 136.733M59.0123 251.908L61.6785 252.212C64.6117 252.546 67.5461 252.868 70.4808 253.188L76.8553 253.881C76.8716 254.245 76.9157 254.6 76.9238 254.875C76.9654 256.29 76.9964 257.706 77.0258 259.122C77.0847 261.96 77.0201 264.801 76.8333 267.633C76.6523 270.378 76.4139 273.123 76.0434 275.849L75.9676 276.394L75.9236 276.681C75.6213 276.71 75.3243 276.853 75.0773 277.149C74.5381 277.793 72.5858 277.167 71.8233 276.895C70.5695 276.449 69.3887 275.695 68.2992 274.939C67.2352 274.2 66.2771 273.339 65.3564 272.432L64.6032 271.687C63.8538 270.942 63.1037 270.148 62.6446 269.211C62.022 267.941 61.9415 266.381 61.759 264.997C61.5342 263.295 61.2665 261.593 60.9836 259.899M136.411 234.04L136.688 234.113C146.734 236.783 156.765 239.533 166.842 242.085C171.828 243.349 176.839 244.52 181.832 245.759L182.64 245.962C186.579 246.957 190.565 248.156 193.581 251.014C193.693 251.119 193.854 250.958 193.749 250.846C190.499 247.384 185.875 245.918 181.436 244.648C180.616 244.413 179.794 244.184 178.973 243.95C185.01 241.797 191.143 239.924 197.417 238.588C199.032 238.244 200.667 237.992 202.281 237.646C203.407 237.405 204.506 237.057 205.62 236.768L206.496 236.547L206.508 239.318C206.523 243.241 206.516 247.162 206.316 251.085L206.278 251.812C206.044 256.178 205.68 260.634 204.131 264.751C202.873 268.096 200.867 271.248 198.243 273.684C196.916 274.917 195.489 275.877 193.725 276.351C192.087 276.791 190.371 276.842 188.687 276.725C180.61 276.161 173.421 271.772 166.405 268.138C154.93 262.194 143.453 256.254 131.966 250.333C132.276 250.12 132.569 249.875 132.835 249.6C134.375 248.009 135.188 245.83 135.721 243.72C136.29 241.475 136.629 239.068 136.669 236.749M121.795 252.627C121.694 252.572 121.576 252.641 121.572 252.755C121.536 253.633 122.021 254.499 122.383 255.289L122.421 255.374C122.862 256.353 123.343 257.319 123.842 258.27C124.838 260.171 125.873 262.051 126.954 263.904C129.126 267.632 131.541 271.204 134.394 274.45C135.039 275.184 136.099 274.243 135.685 273.454C133.691 269.647 131.366 266.053 128.973 262.49C127.775 260.707 126.578 258.921 125.368 257.145C124.863 256.404 124.352 255.666 123.827 254.939L123.51 254.504M2.64966 180.752C12.7307 181.056 22.7999 181.714 32.833 182.745C42.1639 183.703 51.4605 184.979 60.7047 186.57C62.6355 186.902 64.564 187.248 66.49 187.607L67.6453 187.825C69.5716 188.19 71.9249 188.341 73.64 189.37C75.4483 190.455 75.9369 192.724 76.5386 194.594C77.2459 196.794 77.9353 199 78.6061 201.211C81.2697 209.991 83.7029 218.847 85.8735 227.762C86.9509 232.187 87.9069 236.637 88.9142 241.078C89.8092 245.024 90.7966 248.925 91.8283 252.832C91.7011 252.733 91.5452 252.658 91.3569 252.617C86.2341 251.527 81.0049 251.053 75.8055 250.451L75.3025 250.392C69.9238 249.759 64.5452 249.131 59.1633 248.526L23.5311 244.517C21.4297 244.281 19.1784 244.249 17.1333 243.685C13.6563 242.725 12.8413 238.836 12.258 235.739L12.2404 235.646C10.4816 226.289 9.08149 216.85 7.44121 207.469M90.999 241.954C92.3824 241.863 94.2758 240.596 95.3254 240.687C94.7744 241.611 94.5257 242.666 94.8433 243.793C95.727 246.927 99.7235 245.306 101.649 244.348C103.227 243.562 104.751 242.601 106.498 242.233C108.478 241.817 109.819 242.604 111.492 243.512C112.865 244.257 114.361 244.793 115.9 245.07C116.718 245.217 117.495 245.233 118.27 245.176C118.317 245.214 118.37 245.249 118.43 245.28L118.84 245.496C116.985 245.581 115.095 246.154 113.369 246.678C111.58 247.221 109.823 247.876 108.076 248.545L106.358 249.206C102.119 250.83 97.7305 252.372 93.1428 252.359C92.813 252.358 92.5428 252.449 92.33 252.598M98.739 232.132C97.3723 231.965 96.1108 232.144 95.0188 233.034C93.7017 234.107 92.8169 235.887 90.9235 236.004C90.3715 236.038 90.2433 236.815 90.7919 236.977C92.2013 237.395 93.3423 236.632 94.3026 235.641L94.9482 234.967C95.8971 233.984 96.7722 233.224 98.3823 233.282C100.107 233.345 101.834 233.744 103.547 233.947C105.488 234.176 107.428 234.372 109.375 234.541C109.465 234.549 109.481 234.406 109.396 234.385L107.216 233.842M100.058 226.543L99.8328 226.52C97.8482 226.327 96.0332 226.32 94.2608 227.388L93.9209 227.594C92.3229 228.565 90.5835 229.71 89.5842 231.283C89.4207 231.541 89.6909 231.844 89.9645 231.778C91.8851 231.317 93.2892 229.907 94.9043 228.852C96.717 227.668 98.5895 227.863 100.656 228.047C102.657 228.225 104.658 228.47 106.639 228.804C108.501 229.117 110.369 229.612 112.249 229.769L112.249 229.766C112.464 229.765 112.586 229.442 112.367 229.333C110.459 228.38 108.248 227.928 106.172 227.493M39.7699 206.92C39.9617 206.002 38.8331 205.576 38.31 206.304L38.1987 206.458C37.0686 208.007 35.4343 209.95 35.5175 211.92C34.5241 211.942 33.4942 212.546 33.1071 213.443C32.9282 213.857 32.8675 214.349 32.907 214.858C32.0041 214.928 31.0194 215.521 30.4673 216.099C29.5523 217.056 29.4801 218.408 30.1365 219.527C31.5677 221.965 34.6943 222.852 37.3337 223.05L37.4277 223.057C40.1539 223.245 44.0823 223.194 45.9515 220.854C47.7547 218.597 45.7618 216.77 43.7182 215.778C44.2502 215.292 44.5257 214.595 44.2667 213.86C43.8118 212.569 42.206 212.07 41.2986 211.172C40.1924 210.077 39.4615 208.575 39.7529 207.006M38.2716 208.905C38.5722 210.212 39.3108 211.407 40.3394 212.354C40.7328 212.717 41.1632 213.039 41.6204 213.316L41.6753 213.348C42.0811 213.576 43.0784 214.003 43.0016 214.514C42.9226 215.04 41.2978 215.862 40.8549 215.862C40.7542 215.862 40.6971 216.02 40.8 216.065C41.6026 216.42 42.3036 216.572 43.0885 216.197C43.6128 216.733 44.1222 217.287 44.6267 217.836C45.5189 218.808 45.2136 219.835 44.1594 220.558C42.4654 221.721 39.8905 221.693 37.9141 221.608C35.9248 221.523 33.7984 221.08 32.2445 219.754L32.1768 219.695C31.3323 218.944 30.561 217.67 31.8543 216.947C32.3607 216.663 32.9079 216.68 33.3887 216.542C33.8387 217.425 34.5687 218.131 35.4594 218.268C36.1792 218.378 36.675 217.473 36.0201 217.04L35.873 216.948C35.0508 216.423 34.3492 215.615 34.3678 214.562C34.3805 213.831 35.4009 212.907 36.0657 213.594L36.0961 213.627C36.6524 214.254 37.6323 213.464 37.2664 212.769L37.2488 212.737M168.015 172.557C168.018 172.4 167.797 172.341 167.72 172.477C166.428 174.75 165.753 177.535 165.066 180.039C164.345 182.662 163.763 185.312 163.241 187.981C162.183 193.385 161.619 198.758 161.581 204.267C161.575 205.053 162.856 205.262 162.981 204.456C163.813 199.098 164.61 193.735 165.448 188.378C165.87 185.684 166.361 183.001 166.83 180.315M155.232 176.515C155.327 176.202 154.871 176.097 154.754 176.384C152.163 182.747 151.285 189.959 152.949 196.672C153.203 197.699 154.707 197.254 154.515 196.24M121.805 170.861C121.819 170.626 121.514 170.589 121.399 170.751C120.171 172.482 119.662 174.799 117.508 175.694C116.432 176.14 115.222 176.063 114.272 176.817C113.636 177.321 113.149 178.118 113.626 178.882C113.78 179.129 114.21 179.252 114.419 178.984C114.724 178.593 114.885 178.125 115.299 177.832C115.883 177.419 116.67 177.394 117.339 177.199C118.205 176.948 118.968 176.509 119.593 175.856M101.292 141.994C101.165 141.929 101.044 141.971 100.963 142.08C100.847 142.236 100.861 142.388 101.003 142.495C100.814 142.881 100.591 143.85 100.559 143.991C100.429 144.562 100.292 145.13 100.148 145.698C99.8576 146.843 99.6033 147.997 99.3128 149.142C99.0047 150.356 98.6378 151.557 98.2294 152.741C98.2031 152.817 98.1741 152.896 98.1437 152.975L98.0971 153.095L98.0857 153.077C98.0027 152.946 97.8299 153.037 97.8504 153.176C97.8694 153.302 97.895 153.428 97.9165 153.554L97.8737 153.668C97.6066 154.387 97.4236 155.144 97.9138 155.779C98.0971 156.016 98.2989 156.157 98.5503 156.199C98.9534 157.528 99.4592 158.833 100.001 160.086L100.159 160.452C100.956 162.28 101.805 164.084 103.074 165.641C104.458 167.34 106.363 168.5 107.569 170.362C108.13 171.228 108.52 172.139 108.837 173.117L108.957 173.488C109.181 174.18 109.441 174.851 110.09 175.257C110.297 175.386 110.607 175.345 110.774 175.168C112.104 173.76 110.712 171.132 109.909 169.769C108.794 167.873 107.18 166.661 105.564 165.231C103.822 163.689 102.711 161.627 101.637 159.596C100.978 158.352 100.343 157.08 99.6738 155.831C100.373 155.212 100.597 153.985 100.833 153.131L100.855 153.055C101.247 151.688 101.557 150.286 101.754 148.878C101.943 147.524 102.022 146.189 101.972 144.828L101.957 144.481M98.6926 148.438C98.8471 148.227 98.5914 147.987 98.3795 148.031C97.0912 148.297 95.8316 149.077 94.6753 149.708L94.5518 149.775C93.6288 150.273 92.7 150.883 92.2154 151.851C91.6883 152.902 91.7317 154.113 91.8036 155.255L91.8104 155.362C91.8985 156.733 91.9126 158.156 92.2025 159.502C92.3508 160.19 92.9743 160.384 93.5073 160.221C94.1415 162.225 95.9231 163.701 97.2245 165.282C98.8838 167.297 98.5716 170.018 98.3981 172.446C98.328 173.429 99.55 173.708 100.179 173.184L101.63 171.978C101.871 171.777 102.112 171.576 102.353 171.373C102.559 171.2 102.763 171.025 102.966 170.848L103.268 170.581C103.402 170.461 103.994 169.8 104.167 169.772C104.586 169.706 105.582 170.81 105.923 171.157L105.966 171.2C106.607 171.829 107.187 172.506 107.727 173.224C107.826 173.356 108.02 173.247 107.949 173.094C107.465 172.058 106.903 171.067 106.235 170.139L106.1 169.955C105.656 169.356 105.06 168.298 104.275 168.121C103.318 167.905 102.362 168.866 101.665 169.399L101.621 169.433C101.289 169.682 100.962 169.935 100.635 170.19C100.669 168.382 100.441 166.556 99.5079 164.999C98.8502 163.9 97.8649 163.087 97.0217 162.143C96.0831 161.092 95.5929 159.8 94.7432 158.706C94.6338 158.565 94.4829 158.489 94.3196 158.465C94.287 157.585 94.1574 156.696 94.0573 155.826L94.0283 155.565C93.9271 154.619 93.6879 153.464 94.1508 152.578C94.588 151.742 95.5913 151.151 96.3342 150.584L96.9408 150.113M140.506 138.438C140.893 138.662 141.256 138.941 141.585 139.29C142.62 140.389 143.361 141.756 144.081 143.072C144.469 143.78 144.843 144.497 145.234 145.203C145.404 145.511 145.579 145.815 145.756 146.119C145.838 146.259 146.081 146.537 146.201 146.708C146.067 146.896 145.929 147.08 145.788 147.263C145.734 147.333 142.02 151.38 140.725 152.965C138.742 155.391 136.97 157.954 135.455 160.697C133.972 163.384 132.842 166.228 131.468 168.967C130.78 170.338 130.012 171.699 129.033 172.886C128.995 172.932 128.955 172.976 128.916 173.021C128.543 172.011 127.585 170.93 127.115 170.309L127.071 170.25C126.004 168.812 124.877 167.417 123.726 166.045C122.675 164.793 121.597 163.568 120.493 162.363L120.078 161.912C119.309 161.08 118.332 159.837 117.206 159.243C117.326 159.028 117.466 158.815 117.626 158.605C118.681 157.225 120.173 156.224 121.644 155.321L122.599 154.741C126.196 152.547 129.738 150.253 132.861 147.403C134.513 145.895 136.143 144.316 137.532 142.557L138.023 141.935M134.503 137.352C136.188 137.493 138.007 137.46 139.564 138.009C138.18 139.318 136.864 140.731 135.513 142.062C135.392 141.162 135.147 140.273 134.938 139.395" fill="black"/>
<path fill-rule="evenodd" clip-rule="evenodd" d="M117.273 54.1128C105.277 54.1128 92.8694 63.4148 88.4721 69.3506C84.7751 74.3412 82.7846 96.9082 82.7846 112.159C82.7846 115.349 81.0251 121.362 81.5386 124.413C83.4202 135.593 91.6179 144.969 107.843 144.969C124.068 144.969 135.701 138.536 147.761 121.262C153.612 121.262 156.448 116.772 156.489 109.688C156.53 102.604 150.841 100.027 150.841 100.027C150.841 100.027 152.87 72.0694 147.761 64.7907C142.652 57.5119 129.269 54.1128 117.273 54.1128Z" fill="white"/>
<path fill-rule="evenodd" clip-rule="evenodd" d="M122.321 50.1598C114.747 49.3926 107.325 50.0372 99.8613 51.371C99.2909 51.4744 98.9676 51.8487 98.8474 52.2987C95.3317 52.4593 91.812 52.7173 88.301 52.9097C87.0268 52.9794 86.3045 54.2389 86.8855 55.3761C87.0015 55.6021 87.1221 55.8219 87.2446 56.0417L87.0907 55.9909C86.0345 55.6519 84.8935 55.4848 83.8643 56.0229C82.5545 56.7076 82.0409 58.2186 82.3303 59.6093C82.4045 59.9643 82.5289 60.3046 82.6705 60.6366C82.3831 60.6176 82.0937 60.624 81.8064 60.662C80.2768 60.8649 79.1402 62.0379 79.0599 63.5998C78.9416 65.9582 80.4606 68.3509 82.25 70.0394C81.9904 70.5743 81.8909 71.2042 81.9988 71.8424C82.2143 73.1042 83.1435 73.8598 84.2205 74.3526C83.7714 75.7795 83.5591 77.2712 83.6843 78.7956C83.7262 79.3046 84.1711 79.725 84.6407 79.8281C82.8902 84.6498 82.0041 89.8266 81.3669 94.8709C80.9127 98.4599 80.6888 102.07 80.6615 105.686C80.6482 107.318 80.6751 108.953 80.7435 110.586L80.7712 111.198C80.8557 112.963 80.8599 114.816 81.1768 116.562C80.0951 118.403 79.6599 120.688 79.4761 122.75C79.2479 125.303 79.6092 127.937 80.4143 130.365C83.4524 139.542 92.6212 145.333 101.831 146.838C110.355 148.231 120.219 146.356 125.201 138.61C125.279 138.487 125.112 138.386 125.015 138.466C121.451 141.366 117.316 142.659 112.825 143.289C105.058 144.376 96.3291 142.533 90.0967 137.646C87.1052 135.3 84.9481 131.885 83.9993 128.209C83.5155 126.331 83.3486 124.371 83.539 122.438C83.7334 120.476 84.6015 118.802 85.1486 116.949C85.3324 116.323 85.1381 115.742 84.7557 115.328C84.6481 113.823 84.3944 112.305 84.2974 110.805C84.1897 109.099 84.124 107.393 84.1007 105.686C84.0564 102.144 84.2043 98.5949 84.5022 95.0677C85.0472 88.6086 86.4944 82.3064 87.3437 75.9023C87.6582 76.1844 88.1089 76.3003 88.5814 76.0538L88.6303 76.027L88.8881 75.8792C88.9029 75.8792 88.9198 75.8813 88.9348 75.8832C90.6986 76.0546 92.5282 75.8095 94.2184 75.283C95.9869 74.7337 97.6282 73.8883 99.0946 72.7618C99.3733 74.1755 99.4897 75.6043 99.4916 77.0457C99.4937 77.946 100.447 78.4133 101.203 78.0287C104.556 76.325 107.758 74.3617 110.799 72.1552C111.154 73.975 111.508 75.7945 111.866 77.6163C112.003 78.3182 112.897 78.6014 113.469 78.2675C115.747 76.9421 117.713 75.2071 119.315 73.1441C119.635 73.7558 119.955 74.3673 120.278 74.9775L120.764 75.8917C121.244 76.7899 121.886 77.7835 122.936 78.0707C124.047 78.3751 124.975 77.6546 125.349 76.6483C125.463 76.3357 125.568 76.0143 125.666 75.6909C126.612 77.8532 127.681 79.9667 128.889 81.983C130.702 85.0072 132.878 87.7019 135.048 90.4664C135.707 91.3057 136.835 90.5045 136.926 89.6888C136.979 89.2091 137.023 88.7272 137.062 88.2472C138.326 90.7995 139.645 93.3279 141.082 95.7829L140.876 96.5896V96.5896C140.283 98.9733 139.791 101.374 139.256 103.77C139.083 104.543 139.493 105.649 140.396 105.78C141.475 105.937 142.496 106.489 143.601 106.109C144.806 105.696 145.044 104.654 145.612 103.666C145.726 103.47 145.858 103.289 146 103.117L146.036 103.164V103.164C146.125 103.281 146.336 103.154 146.283 103.021L146.221 102.867V102.867C146.71 102.348 147.295 101.915 147.832 101.45C149.11 101.234 150.547 101.47 151.428 101.989C153.433 103.173 154.354 105.612 154.373 107.854C154.396 110.479 153.583 113.43 152.209 115.674C151.605 116.661 150.777 117.553 149.683 117.991C148.597 118.426 147.42 118.291 146.315 118.701C145.584 118.974 145.134 119.785 145.575 120.52C145.605 120.571 145.639 120.618 145.671 120.666L145.342 121.103C145.116 121.405 144.88 121.729 144.661 122.065C144.099 122.712 143.507 123.336 142.935 123.972C141.876 125.145 140.849 126.35 139.808 127.539C138.825 128.662 137.786 129.716 136.715 130.754C135.703 131.737 134.439 132.563 133.51 133.612C132.606 134.635 132.361 136.42 133.848 137.012C135.494 137.669 136.951 136.13 138.058 135.104L138.105 135.061C140.136 133.192 141.969 131.056 143.426 128.703C144.868 129.686 146.955 129.78 148.391 128.798C149.147 128.281 149.727 127.412 150.009 126.468C150.275 126.527 150.54 126.562 150.799 126.558C150.933 126.635 151.066 126.711 151.201 126.781C152.273 127.339 153.589 127.089 154.079 125.904C154.525 124.827 154.065 123.604 153.663 122.567L153.58 122.353C153.352 121.761 153.101 121.117 152.788 120.51C153.658 119.855 154.402 119.041 155.032 118.115C157.147 114.998 158.203 110.439 157.736 106.719C157.455 104.475 156.401 102.15 154.675 100.637L154.738 100.472V100.472C155.222 99.244 155.662 98.0116 155.947 96.7141C156.28 95.1966 156.443 93.6242 156.591 92.0792C156.904 88.816 156.819 85.4788 156.403 82.2282C155.621 76.1096 153.639 70.103 150.122 65.0116C151.119 63.8173 151.909 62.4118 151.497 60.7952C151.309 60.0531 150.881 59.3495 150.234 58.9245C149.877 58.6901 149.452 58.6542 149.095 58.4597L148.988 58.4006C148.831 58.309 148.951 58.3187 149.044 57.8933C149.414 56.1938 149.108 54.5519 147.238 53.9876C145.478 53.4571 143.813 54.5836 142.772 55.9256C140.047 53.9916 136.455 52.9794 133.297 52.1192C129.705 51.1447 126.021 50.5362 122.321 50.1598ZM151.759 107.161C151.772 105.777 150.46 104.923 149.169 105.149C148.302 105.3 147.579 105.818 146.9 106.353L146.569 106.615C145.742 107.264 144.792 107.964 144.299 108.884C143.577 110.241 145.104 112.066 146.53 111.115C147.508 110.46 148.136 109.409 148.777 108.433L148.844 108.332C149.135 107.894 149.391 107.429 149.79 107.079L149.877 107.003C150.008 106.891 150.149 106.789 150.318 106.74C150.646 106.646 151.252 106.778 151.396 107.168L151.409 107.208C151.461 107.404 151.757 107.362 151.759 107.161Z" fill="black"/>
<path fill-rule="evenodd" clip-rule="evenodd" d="M97.027 126.322C98.4609 126.886 100.155 127.019 101.635 126.539C103.05 126.079 104.335 125.057 105.113 123.771C105.805 122.625 106.094 121.266 105.685 119.91C105.666 119.846 105.602 119.804 105.541 119.788C105.206 120.093 104.999 120.396 104.792 120.697C104.444 121.205 104.095 121.708 103.615 122.143C102.918 122.775 101.978 123.288 101.045 123.457C100.132 123.624 99.1973 123.477 98.3796 123.039C97.8823 122.774 97.4802 122.418 97.082 122.061C96.6485 121.673 96.2218 121.278 95.6247 121.059C95.1462 120.883 94.6436 121.031 94.2575 121.326C93.8425 121.642 93.5441 122.137 93.5606 122.654C93.5862 123.456 93.9371 124.125 94.4462 124.677C95.1345 125.423 96.1077 125.961 97.027 126.322ZM98.7293 106.339C97.134 107.309 94.7031 109.571 96.4194 111.976C98.4396 114.097 101.348 111.666 102.781 110.566C104.111 109.714 105.604 111.905 104.371 112.901C94.0135 120.572 89.8104 106.593 97.9224 105.198C98.8156 105.045 99.1473 106.039 98.7293 106.339ZM115.51 92.8975C113.335 92.7935 111.419 93.7703 109.347 94.2142C107.432 94.6246 105.545 94.3782 103.683 93.8561C100.661 93.0088 99.4112 97.6374 102.392 98.5394C104.563 99.1963 106.849 99.242 109.077 98.9034C111.056 98.6024 112.715 97.6387 114.602 97.0775C116.221 96.5962 118.126 96.7963 119.836 97.0229L120.5 97.1122C121.486 97.2451 122.478 97.3785 123.455 97.5715C124.303 97.7391 125.149 98.0457 126.014 98.0812C126.112 98.0855 126.195 97.9578 126.134 97.8726C125.129 96.4924 123.192 95.4033 121.651 94.677L121.547 94.628C119.645 93.741 117.627 92.9985 115.51 92.8975ZM116.306 103.075L116.306 103.028C116.303 101.68 115.519 98.6026 113.579 98.6026C112.368 98.6026 111.632 100.697 111.505 102.856L111.5 102.944C111.444 104.286 111.812 107.22 113.579 107.22C115.365 107.22 116.288 104.441 116.306 103.075V103.075ZM87.7522 103.075L87.752 103.028C87.7549 101.68 88.5396 98.6026 90.479 98.6026C91.6603 98.6026 92.3892 100.593 92.5429 102.694L92.5536 102.856C92.6301 104.153 92.2858 107.22 90.479 107.22C88.6933 107.22 87.7706 104.441 87.7522 103.075V103.075ZM87.782 91.256L87.6432 91.259C85.3768 91.3376 83.0454 92.6808 82.4403 94.9369C82.4091 95.054 82.5534 95.1328 82.6389 95.0525C84.5026 93.307 87.0089 94.9749 88.875 95.8491L89.5605 96.1659C91.9662 97.2856 94.7024 98.602 97.3736 97.7675C98.6423 97.3713 99.448 96.0672 99.0861 94.7501C98.7642 93.5782 97.3501 92.5933 96.1254 93.0163L96.0699 93.0365C95.0748 93.4172 93.8513 93.0314 92.8236 92.6511L91.9794 92.3339C90.6219 91.8186 89.2581 91.2421 87.782 91.256V91.256Z" fill="black"/>
</svg>
